<svg width="32" height="32" viewBox="0 0 32 32" fill="none" xmlns="http://www.w3.org/2000/svg">
<path d="M22.6667 22.6667C23.2223 22.6667 23.6943 22.472 24.0827 22.0827C24.472 21.6943 24.6667 21.2223 24.6667 20.6667C24.6667 20.1111 24.472 19.6391 24.0827 19.2507C23.6943 18.8614 23.2223 18.6667 22.6667 18.6667C22.1112 18.6667 21.6392 18.8614 21.2507 19.2507C20.8614 19.6391 20.6667 20.1111 20.6667 20.6667C20.6667 21.2223 20.8614 21.6943 21.2507 22.0827C21.6392 22.472 22.1112 22.6667 22.6667 22.6667ZM22.6667 26.6667C23.3556 26.6667 23.9889 26.5054 24.5667 26.1827C25.1445 25.8609 25.6112 25.4334 25.9667 24.9C25.4778 24.6111 24.9556 24.3889 24.4 24.2334C23.8445 24.0778 23.2667 24 22.6667 24C22.0667 24 21.4889 24.0778 20.9334 24.2334C20.3778 24.3889 19.8556 24.6111 19.3667 24.9C19.7223 25.4334 20.1889 25.8609 20.7667 26.1827C21.3445 26.5054 21.9778 26.6667 22.6667 26.6667ZM22.6667 29.3334C20.8223 29.3334 19.2503 28.6836 17.9507 27.384C16.6503 26.0836 16 24.5111 16 22.6667C16 20.8223 16.6503 19.2498 17.9507 17.9494C19.2503 16.6498 20.8223 16 22.6667 16C24.5112 16 26.0836 16.6498 27.384 17.9494C28.6836 19.2498 29.3334 20.8223 29.3334 22.6667C29.3334 24.5111 28.6836 26.0836 27.384 27.384C26.0836 28.6836 24.5112 29.3334 22.6667 29.3334ZM16 29.2334H15.6827C15.5832 29.2334 15.4778 29.2111 15.3667 29.1667C12.4556 28.2778 10.0556 26.4778 8.16671 23.7667C6.27782 21.0556 5.33337 18.0667 5.33337 14.8V8.50003C5.33337 7.94448 5.49471 7.44448 5.81737 7.00003C6.13915 6.55559 6.5556 6.23337 7.06671 6.03337L15.0667 3.03337C15.3778 2.92225 15.6889 2.8667 16 2.8667C16.3112 2.8667 16.6223 2.92225 16.9334 3.03337L24.9334 6.03337C25.4445 6.23337 25.8614 6.55559 26.184 7.00003C26.5058 7.44448 26.6667 7.94448 26.6667 8.50003V14.2334C26.2445 14.0556 25.8112 13.8943 25.3667 13.7494C24.9223 13.6054 24.4667 13.5 24 13.4334V8.53337L16 5.53337L8.00004 8.53337V14.8C8.00004 15.8445 8.13871 16.8889 8.41604 17.9334C8.69426 18.9778 9.0836 19.9725 9.58404 20.9174C10.0836 21.8614 10.6889 22.7334 11.4 23.5334C12.1112 24.3334 12.9 25 13.7667 25.5334C14.0112 26.2445 14.3223 26.9111 14.7 27.5334C15.0778 28.1556 15.5223 28.7223 16.0334 29.2334H16Z" fill="#666666"/>
</svg>
