<svg width="32" height="32" viewBox="0 0 32 32" fill="none" xmlns="http://www.w3.org/2000/svg">
<path d="M4 2C4 1.46957 4.21071 0.960859 4.58579 0.585786C4.96086 0.210714 5.46957 0 6 0L26 0C26.5304 0 27.0391 0.210714 27.4142 0.585786C27.7893 0.960859 28 1.46957 28 2V15C28 15.2652 27.8946 15.5196 27.7071 15.7071C27.5196 15.8946 27.2652 16 27 16C26.7348 16 26.4804 15.8946 26.2929 15.7071C26.1054 15.5196 26 15.2652 26 15V2H6V30H12V25C12 24.7348 12.1054 24.4804 12.2929 24.2929C12.4804 24.1054 12.7348 24 13 24H16V32H6C5.46957 32 4.96086 31.7893 4.58579 31.4142C4.21071 31.0391 4 30.5304 4 30V2Z" fill="#666666"/>
<path d="M9 4C8.73478 4 8.48043 4.10536 8.29289 4.29289C8.10536 4.48043 8 4.73478 8 5V7C8 7.26522 8.10536 7.51957 8.29289 7.70711C8.48043 7.89464 8.73478 8 9 8H11C11.2652 8 11.5196 7.89464 11.7071 7.70711C11.8946 7.51957 12 7.26522 12 7V5C12 4.73478 11.8946 4.48043 11.7071 4.29289C11.5196 4.10536 11.2652 4 11 4H9ZM15 4C14.7348 4 14.4804 4.10536 14.2929 4.29289C14.1054 4.48043 14 4.73478 14 5V7C14 7.26522 14.1054 7.51957 14.2929 7.70711C14.4804 7.89464 14.7348 8 15 8H17C17.2652 8 17.5196 7.89464 17.7071 7.70711C17.8946 7.51957 18 7.26522 18 7V5C18 4.73478 17.8946 4.48043 17.7071 4.29289C17.5196 4.10536 17.2652 4 17 4H15ZM21 4C20.7348 4 20.4804 4.10536 20.2929 4.29289C20.1054 4.48043 20 4.73478 20 5V7C20 7.26522 20.1054 7.51957 20.2929 7.70711C20.4804 7.89464 20.7348 8 21 8H23C23.2652 8 23.5196 7.89464 23.7071 7.70711C23.8946 7.51957 24 7.26522 24 7V5C24 4.73478 23.8946 4.48043 23.7071 4.29289C23.5196 4.10536 23.2652 4 23 4H21ZM9 10C8.73478 10 8.48043 10.1054 8.29289 10.2929C8.10536 10.4804 8 10.7348 8 11V13C8 13.2652 8.10536 13.5196 8.29289 13.7071C8.48043 13.8946 8.73478 14 9 14H11C11.2652 14 11.5196 13.8946 11.7071 13.7071C11.8946 13.5196 12 13.2652 12 13V11C12 10.7348 11.8946 10.4804 11.7071 10.2929C11.5196 10.1054 11.2652 10 11 10H9ZM15 10C14.7348 10 14.4804 10.1054 14.2929 10.2929C14.1054 10.4804 14 10.7348 14 11V13C14 13.2652 14.1054 13.5196 14.2929 13.7071C14.4804 13.8946 14.7348 14 15 14H17C17.2652 14 17.5196 13.8946 17.7071 13.7071C17.8946 13.5196 18 13.2652 18 13V11C18 10.7348 17.8946 10.4804 17.7071 10.2929C17.5196 10.1054 17.2652 10 17 10H15ZM21 10C20.7348 10 20.4804 10.1054 20.2929 10.2929C20.1054 10.4804 20 10.7348 20 11V13C20 13.2652 20.1054 13.5196 20.2929 13.7071C20.4804 13.8946 20.7348 14 21 14H23C23.2652 14 23.5196 13.8946 23.7071 13.7071C23.8946 13.5196 24 13.2652 24 13V11C24 10.7348 23.8946 10.4804 23.7071 10.2929C23.5196 10.1054 23.2652 10 23 10H21ZM9 16C8.73478 16 8.48043 16.1054 8.29289 16.2929C8.10536 16.4804 8 16.7348 8 17V19C8 19.2652 8.10536 19.5196 8.29289 19.7071C8.48043 19.8946 8.73478 20 9 20H11C11.2652 20 11.5196 19.8946 11.7071 19.7071C11.8946 19.5196 12 19.2652 12 19V17C12 16.7348 11.8946 16.4804 11.7071 16.2929C11.5196 16.1054 11.2652 16 11 16H9ZM15 16C14.7348 16 14.4804 16.1054 14.2929 16.2929C14.1054 16.4804 14 16.7348 14 17V19C14 19.2652 14.1054 19.5196 14.2929 19.7071C14.4804 19.8946 14.7348 20 15 20H17C17.2652 20 17.5196 19.8946 17.7071 19.7071C17.8946 19.5196 18 19.2652 18 19V17C18 16.7348 17.8946 16.4804 17.7071 16.2929C17.5196 16.1054 17.2652 16 17 16H15ZM23.772 18.92C24.132 17.694 25.868 17.694 26.23 18.92L26.316 19.216C26.3697 19.3996 26.4639 19.5688 26.5916 19.7113C26.7194 19.8537 26.8774 19.9656 27.0541 20.0389C27.2308 20.1122 27.4217 20.145 27.6127 20.1348C27.8038 20.1246 27.9901 20.0717 28.158 19.98L28.43 19.832C29.552 19.22 30.78 20.448 30.17 21.57L30.02 21.842C29.9287 22.0098 29.8761 22.196 29.8661 22.3868C29.8561 22.5776 29.8889 22.7682 29.9622 22.9446C30.0355 23.1211 30.1473 23.2789 30.2895 23.4065C30.4317 23.5341 30.6007 23.6282 30.784 23.682L31.082 23.772C32.306 24.132 32.306 25.868 31.082 26.23L30.782 26.316C30.5987 26.3702 30.4299 26.4647 30.288 26.5926C30.146 26.7205 30.0345 26.8786 29.9616 27.0553C29.8887 27.2319 29.8563 27.4227 29.8668 27.6135C29.8772 27.8043 29.9303 27.9904 30.022 28.158L30.17 28.43C30.78 29.552 29.552 30.78 28.43 30.17L28.158 30.02C27.9902 29.9287 27.804 29.8761 27.6132 29.8661C27.4224 29.8561 27.2318 29.8889 27.0554 29.9622C26.8789 30.0355 26.7211 30.1473 26.5935 30.2895C26.4659 30.4317 26.3718 30.6007 26.318 30.784L26.228 31.082C25.868 32.306 24.132 32.306 23.77 31.082L23.684 30.782C23.6298 30.5987 23.5353 30.4299 23.4074 30.288C23.2795 30.146 23.1214 30.0345 22.9447 29.9616C22.7681 29.8887 22.5773 29.8563 22.3865 29.8668C22.1957 29.8772 22.0096 29.9303 21.842 30.022L21.57 30.17C20.448 30.78 19.22 29.552 19.83 28.43L19.98 28.158C20.0713 27.9902 20.1239 27.804 20.1339 27.6132C20.1439 27.4224 20.1111 27.2318 20.0378 27.0554C19.9645 26.8789 19.8527 26.7211 19.7105 26.5935C19.5683 26.4659 19.3993 26.3718 19.216 26.318L18.92 26.228C17.694 25.868 17.694 24.132 18.92 23.77L19.216 23.684C19.3996 23.6303 19.5688 23.5361 19.7113 23.4084C19.8537 23.2806 19.9656 23.1226 20.0389 22.9459C20.1122 22.7692 20.145 22.5783 20.1348 22.3873C20.1246 22.1962 20.0717 22.0099 19.98 21.842L19.832 21.57C19.22 20.448 20.448 19.22 21.57 19.83L21.842 19.98C22.0098 20.0713 22.196 20.1239 22.3868 20.1339C22.5775 20.1439 22.7682 20.1111 22.9446 20.0378C23.1211 19.9645 23.2789 19.8527 23.4065 19.7105C23.5341 19.5683 23.6282 19.3993 23.682 19.216L23.772 18.92ZM28 25C28 24.606 27.9224 24.2159 27.7716 23.8519C27.6209 23.488 27.3999 23.1573 27.1213 22.8787C26.8427 22.6001 26.512 22.3791 26.1481 22.2284C25.7841 22.0776 25.394 22 25 22C24.606 22 24.2159 22.0776 23.8519 22.2284C23.488 22.3791 23.1573 22.6001 22.8787 22.8787C22.6001 23.1573 22.3791 23.488 22.2284 23.8519C22.0776 24.2159 22 24.606 22 25C22 25.7956 22.3161 26.5587 22.8787 27.1213C23.4413 27.6839 24.2044 28 25 28C25.7956 28 26.5587 27.6839 27.1213 27.1213C27.6839 26.5587 28 25.7956 28 25Z" fill="#666666"/>
</svg>
