<svg width="32" height="32" viewBox="0 0 32 32" fill="none" xmlns="http://www.w3.org/2000/svg">
<path d="M16 10.6665C15.6463 10.6665 15.3072 10.807 15.0571 11.057C14.8071 11.3071 14.6666 11.6462 14.6666 11.9998V17.3332C14.6666 17.6868 14.8071 18.0259 15.0571 18.276C15.3072 18.526 15.6463 18.6665 16 18.6665C16.3536 18.6665 16.6927 18.526 16.9428 18.276C17.1928 18.0259 17.3333 17.6868 17.3333 17.3332V11.9998C17.3333 11.6462 17.1928 11.3071 16.9428 11.057C16.6927 10.807 16.3536 10.6665 16 10.6665ZM10.6666 14.6665C10.313 14.6665 9.97387 14.807 9.72382 15.057C9.47377 15.3071 9.33329 15.6462 9.33329 15.9998V17.3332C9.33329 17.6868 9.47377 18.0259 9.72382 18.276C9.97387 18.526 10.313 18.6665 10.6666 18.6665C11.0202 18.6665 11.3594 18.526 11.6094 18.276C11.8595 18.0259 12 17.6868 12 17.3332V15.9998C12 15.6462 11.8595 15.3071 11.6094 15.057C11.3594 14.807 11.0202 14.6665 10.6666 14.6665ZM25.3333 2.6665H6.66663C5.60576 2.6665 4.58834 3.08793 3.8382 3.83808C3.08805 4.58822 2.66663 5.60564 2.66663 6.6665V19.9998C2.66663 21.0607 3.08805 22.0781 3.8382 22.8283C4.58834 23.5784 5.60576 23.9998 6.66663 23.9998H22.12L27.0533 28.9465C27.1779 29.0701 27.3256 29.1678 27.4881 29.2342C27.6505 29.3006 27.8245 29.3342 28 29.3332C28.1749 29.3377 28.3484 29.3011 28.5066 29.2265C28.7501 29.1265 28.9586 28.9566 29.1057 28.7383C29.2528 28.52 29.332 28.2631 29.3333 27.9998V6.6665C29.3333 5.60564 28.9119 4.58822 28.1617 3.83808C27.4116 3.08793 26.3942 2.6665 25.3333 2.6665ZM26.6666 24.7865L23.6133 21.7198C23.4887 21.5963 23.341 21.4985 23.1785 21.4321C23.0161 21.3658 22.8421 21.3322 22.6666 21.3332H6.66663C6.313 21.3332 5.97387 21.1927 5.72382 20.9426C5.47377 20.6926 5.33329 20.3535 5.33329 19.9998V6.6665C5.33329 6.31288 5.47377 5.97374 5.72382 5.7237C5.97387 5.47365 6.313 5.33317 6.66663 5.33317H25.3333C25.6869 5.33317 26.0261 5.47365 26.2761 5.7237C26.5261 5.97374 26.6666 6.31288 26.6666 6.6665V24.7865ZM21.3333 7.99984C20.9797 7.99984 20.6405 8.14031 20.3905 8.39036C20.1404 8.64041 20 8.97955 20 9.33317V17.3332C20 17.6868 20.1404 18.0259 20.3905 18.276C20.6405 18.526 20.9797 18.6665 21.3333 18.6665C21.6869 18.6665 22.0261 18.526 22.2761 18.276C22.5261 18.0259 22.6666 17.6868 22.6666 17.3332V9.33317C22.6666 8.97955 22.5261 8.64041 22.2761 8.39036C22.0261 8.14031 21.6869 7.99984 21.3333 7.99984Z" fill="#666666"/>
</svg>
